<?xml version="1.0" standalone="no"?><!DOCTYPE svg PUBLIC "-//W3C//DTD SVG 1.1//EN" "http://www.w3.org/Graphics/SVG/1.1/DTD/svg11.dtd"><svg t="1507619316865" class="icon" style="" viewBox="0 0 1024 1024" version="1.1" xmlns="http://www.w3.org/2000/svg" p-id="2380" xmlns:xlink="http://www.w3.org/1999/xlink" width="200" height="200"><defs><style type="text/css"></style></defs><path d="M778.2 33.7 247.8 33.7C178.8 33.7 123 89.5 123 158.5l0 717.6c0 68.9 55.9 124.8 124.8 124.8l312 0 62.4 0 31.2 0 0-1.2c102.1-11.7 236.9-133.5 248.4-248.4l1.2 0L903 158.5C903 89.5 847.1 33.7 778.2 33.7zM637.8 938.5l-15.6 0L622.2 813.7l0-31.2c0-17.2 14-31.2 31.2-31.2l31.2 0 154.4 0C824.2 828.6 708.1 938.5 637.8 938.5zM840.6 688.9l-234 0 0 2.2c-21.9 5.7-38.9 22.7-44.6 44.6l-2.2 0 0 15.6 0 187.2-312 0c-34.5 0-62.4-27.9-62.4-62.4L185.4 158.5c0-34.5 27.9-62.4 62.4-62.4l530.4 0c34.5 0 62.4 27.9 62.4 62.4L840.6 688.9zM442.8 532.9 318 532.9c-12.9 0-23.4 10.5-23.4 23.4 0 12.9 10.5 23.4 23.4 23.4l124.8 0c12.9 0 23.4-10.5 23.4-23.4C466.2 543.3 455.7 532.9 442.8 532.9zM536.4 532.9l-15.6 0c-12.9 0-23.4 10.5-23.4 23.4 0 12.9 10.5 23.4 23.4 23.4l15.6 0c12.9 0 23.4-10.5 23.4-23.4C559.8 543.3 549.3 532.9 536.4 532.9zM700.2 376.9 325.8 376.9c-17.2 0-31.2 14-31.2 31.2 0 17.2 14 31.2 31.2 31.2l374.4 0c17.2 0 31.2-14 31.2-31.2C731.4 390.8 717.4 376.9 700.2 376.9zM700.2 220.9 325.8 220.9c-17.2 0-31.2 14-31.2 31.2s14 31.2 31.2 31.2l374.4 0c17.2 0 31.2-14 31.2-31.2S717.4 220.9 700.2 220.9z" p-id="2381" fill="#ff9800"></path></svg>